<svg width="16" height="16" viewBox="0 0 16 16" fill="none" xmlns="http://www.w3.org/2000/svg">
    <path fill-rule="evenodd" clip-rule="evenodd"
          d="M8 3.42856C4.88311 3.42856 2.22129 5.45958 1.14285 8.32652C2.22129 11.1935 4.88311 13.2245 8 13.2245C11.1169 13.2245 13.7787 11.1935 14.8571 8.32652C13.7787 5.45958 11.1169 3.42856 8 3.42856ZM8 11.7551C6.10742 11.7551 4.57142 10.2191 4.57142 8.32652C4.57142 6.43395 6.10742 4.89795 8 4.89795C9.89257 4.89795 11.4286 6.43395 11.4286 8.32652C11.4286 10.2191 9.89257 11.7551 8 11.7551ZM8 6.36733C6.91591 6.36733 6.04081 7.24244 6.04081 8.32652C6.04081 9.4106 6.91591 10.2857 8 10.2857C9.08408 10.2857 9.95918 9.4106 9.95918 8.32652C9.95918 7.24244 9.08408 6.36733 8 6.36733Z"
          fill="#6E6E6E"/>
    <path d="M13 15C14.1046 15 15 14.1046 15 13C15 11.8954 14.1046 11 13 11C11.8954 11 11 11.8954 11 13C11 14.1046 11.8954 15 13 15Z"
          fill="#DB5860"/>
</svg>
