<svg width="16" height="16" viewBox="0 0 16 16" fill="none" xmlns="http://www.w3.org/2000/svg">
    <path d="M10.5938 8.60333L8.85318 10.3439L13.7764 15.2671L15.517 13.5265L10.5938 8.60333Z" fill="#6E6E6E"/>
    <path fill-rule="evenodd" clip-rule="evenodd"
          d="M6.46154 12.3077C3.2328 12.3077 0.615387 9.69028 0.615387 6.46154C0.615387 3.2328 3.2328 0.615387 6.46154 0.615387C9.69028 0.615387 12.3077 3.2328 12.3077 6.46154C12.3077 9.69028 9.69028 12.3077 6.46154 12.3077ZM6.46154 9.96923C8.39879 9.96923 9.96923 8.39879 9.96923 6.46154C9.96923 4.5243 8.39879 2.95385 6.46154 2.95385C4.5243 2.95385 2.95385 4.5243 2.95385 6.46154C2.95385 8.39879 4.5243 9.96923 6.46154 9.96923Z"
          fill="#6E6E6E"/>
    <path d="M14 15C15.1046 15 16 14.1046 16 13C16 11.8954 15.1046 11 14 11C12.8954 11 12 11.8954 12 13C12 14.1046 12.8954 15 14 15Z"
          fill="#DB5860"/>
</svg>
