<svg width="16" height="16" viewBox="0 0 16 16" fill="none" xmlns="http://www.w3.org/2000/svg">
    <path fill-rule="evenodd" clip-rule="evenodd"
          d="M8.50001 11H11V13.5H8.50001V15H6.00001V8.81688C4.37717 8.30717 3.20001 6.79106 3.20001 5C3.20001 2.79086 4.99087 1 7.20001 1C9.40915 1 11.2 2.79086 11.2 5C11.2 6.75406 10.071 8.24441 8.50001 8.78401V11ZM7.20001 6.4C7.97321 6.4 8.60001 5.7732 8.60001 5C8.60001 4.2268 7.97321 3.6 7.20001 3.6C6.42681 3.6 5.80001 4.2268 5.80001 5C5.80001 5.7732 6.42681 6.4 7.20001 6.4Z"
          fill="#D9A343"/>
    <path d="M12 16C13.1046 16 14 15.1046 14 14C14 12.8954 13.1046 12 12 12C10.8954 12 10 12.8954 10 14C10 15.1046 10.8954 16 12 16Z"
          fill="#DB5860"/>
</svg>
