<svg width="15" height="15" viewBox="0 0 15 15" fill="none" xmlns="http://www.w3.org/2000/svg">
    <path d="M6.5 0H0V6.5H6.5V0Z" fill="#F25326"/>
    <path d="M14 0H7.5V6.5H14V0Z" fill="#81BC0A"/>
    <path d="M6.5 7.5H0V14H6.5V7.5Z" fill="#07A6F0"/>
    <path d="M14 7.5H7.5V14H14V7.5Z" fill="#FFBA0F"/>
    <path fill-rule="evenodd" clip-rule="evenodd"
          d="M13 15C11.8954 15 11 14.1046 11 13C11 11.8954 11.8954 11 13 11C14.1046 11 15 11.8954 15 13C15 14.1046 14.1046 15 13 15ZM14.0163 11.7714L12.5046 13.2832L11.9812 12.7598L11.6286 13.1124L12.5043 13.9881L14.3686 12.1237L14.0163 11.7714Z"
          fill="#59A869"/>
</svg>
