<svg width="16" height="16" viewBox="0 0 16 16" fill="none" xmlns="http://www.w3.org/2000/svg">
    <path fill-rule="evenodd" clip-rule="evenodd"
          d="M8 8C9.93375 8 11.5 6.43375 11.5 4.5C11.5 2.56625 9.93375 1 8 1C6.06625 1 4.5 2.56625 4.5 4.5C4.5 6.43375 6.06625 8 8 8ZM8 9.75C5.66375 9.75 1 10.9225 1 13.25V15H15V13.25C15 10.9225 10.3363 9.75 8 9.75Z"
          fill="#9AA7B0" fill-opacity="0.8"/>
    <path fill-rule="evenodd" clip-rule="evenodd"
          d="M14 16C12.8954 16 12 15.1046 12 14C12 12.8954 12.8954 12 14 12C15.1046 12 16 12.8954 16 14C16 15.1046 15.1046 16 14 16ZM15.0163 12.7714L13.5046 14.2832L12.9812 13.7598L12.6286 14.1124L13.5043 14.9881L15.3686 13.1237L15.0163 12.7714Z"
          fill="#59A869"/>
</svg>
